# xmcd
# 
# Track frame offsets:
#     150
#     21913
#     40510
#     64729
#     80889
#     107286
#     127362
#     148413
#     172510
#     195660
# 
# Disc length: 3106
# 
# Revision: 5
# Processed by: cddbd v1.5.2PL0 Copyright (c) Steve Scherf et al.
# Submitted via: fre:ac v1.0.17
# 
DISCID=870c200a
DTITLE=Joanne Shaw Taylor - White Sugar
DYEAR=2009
DGENRE=Blues Rock
TTITLE0=Going Home
TTITLE1=Just Another Word
TTITLE2=Bones
TTITLE3=Who Do You Want Me To Be
TTITLE4=Time Has Come
TTITLE5=White Sugar
TTITLE6=Kiss The Ground Goodbye
TTITLE7=Heavy Heart
TTITLE8=Watch 'Em Burn
TTITLE9=Blackest Day
EXTD=Year: 2009\n\n\n\n\n\n                                                        http://joanneshawtaylor.com
EXTT0=
EXTT1=
EXTT2=
EXTT3=
EXTT4=
EXTT5=
EXTT6=
EXTT7=
EXTT8=
EXTT9=
PLAYORDER=
